<svg width="18" height="19" viewBox="0 0 18 19" fill="none" xmlns="http://www.w3.org/2000/svg">
<path d="M9 17.5C10.5822 17.5 12.129 17.0308 13.4446 16.1518C14.7602 15.2727 15.7855 14.0233 16.391 12.5615C16.9965 11.0997 17.155 9.49113 16.8463 7.93928C16.5376 6.38743 15.7757 4.96197 14.6568 3.84315C13.538 2.72433 12.1126 1.9624 10.5607 1.65372C9.00887 1.34504 7.40034 1.50347 5.93853 2.10897C4.47672 2.71447 3.22729 3.73985 2.34824 5.05544C1.46919 6.37103 1 7.91775 1 9.5C1 10.8227 1.32 12.0698 1.88889 13.1684L1 17.5L5.33155 16.6111C6.43022 17.18 7.67822 17.5 9 17.5Z" stroke="black" stroke-width="1.5" stroke-linecap="round" stroke-linejoin="round"/>
</svg>
