<svg width="24" height="24" viewBox="0 0 24 24" fill="none" xmlns="http://www.w3.org/2000/svg">
<path d="M14.3492 12.0133L0.00133335 10.5679L0 1.4311C0.000174542 1.18711 0.0626824 0.94721 0.181594 0.734158C0.300505 0.521107 0.471877 0.341969 0.679452 0.213738C0.887027 0.0855059 1.12392 0.0124333 1.36766 0.00145156C1.61141 -0.00953017 1.85391 0.0419432 2.07218 0.150989L23.21 10.7199C23.4474 10.839 23.6471 11.0218 23.7866 11.2479C23.9261 11.4739 24 11.7343 24 12C24 12.2656 23.9261 12.5261 23.7866 12.7521C23.6471 12.9782 23.4474 13.161 23.21 13.2801L2.07484 23.849C1.85658 23.9581 1.61407 24.0095 1.37033 23.9985C1.12659 23.9876 0.889693 23.9145 0.682118 23.7863C0.474543 23.658 0.303172 23.4789 0.184261 23.2658C0.0653492 23.0528 0.00284156 22.8129 0.00266702 22.5689V13.4321L14.3492 12.0133Z" fill="white"/>
</svg>
